#!OML:ASF F:\VICON\USERDATA\INSTALL\rory3\rory3.ASF
:FULLY-SPECIFIED
:DEGREES
49
root 0.175168 17.1003 1.14519 0.720616 -7.17678 -6.15207
lowerback 18.9582 -1.33646 5.18498
upperback 2.3955 -0.478789 2.59416
thorax -8.05213 -0.356788 -0.0187554
lowerneck -4.5894 1.89928 1.51295
upperneck -9.10999 2.26555 -3.45462
head -2.02147 1.14272 -1.35394
rclavicle 1.3418e-015 -8.15017e-015
rhumerus -24.9235 10.611 -84.8381
rradius 107.215
rwrist -7.02737
rhand -35.7577 32.8881
rfingers 7.12502
rthumb -8.876 3.09474
lclavicle 1.3418e-015 -8.15017e-015
lhumerus -47.2415 -13.6975 96.6534
lradius 106.088
lwrist 36.9455
lhand -35.7956 13.9319
lfingers 7.12502
lthumb -8.91253 43.7237
rfemur -5.89342 8.07733 33.8742
rtibia 42.6205
rfoot -19.5167 -9.22206
rtoes -13.5287
lfemur -34.3199 17.0515 -7.17932
ltibia 116.657
lfoot 10.4385 -7.66534
ltoes -11.3423
50
root 0.178657 17.1407 1.61764 0.950954 -7.11479 -6.25492
lowerback 19.1091 -1.02854 5.50119
upperback 2.23719 -6.65471e-005 2.45838
thorax -8.28865 -0.145431 -0.463396
lowerneck -4.99369 1.61409 1.60719
upperneck -8.70287 1.90021 -3.24991
head -1.82995 0.949362 -1.29293
rclavicle 3.77691e-015 -7.15625e-015
rhumerus -24.4288 10.6833 -84.7881
rradius 108.228
rwrist -6.97092
rhand -35.9162 33.3797
rfingers 7.12502
rthumb -9.02895 3.59292
lclavicle 3.77691e-015 -7.15625e-015
lhumerus -48.3412 -13.7292 96.7182
lradius 106.419
lwrist 37.5558
lhand -35.4009 13.0528
lfingers 7.12502
lthumb -8.53167 42.8605
rfemur -3.80902 7.97188 33.9418
rtibia 41.4183
rfoot -18.498 -8.86069
rtoes -15.5016
lfemur -36.4722 16.5379 -7.97183
ltibia 115.369
lfoot 8.45186 -8.25371
ltoes -11.4264
51
root 0.181907 17.1993 2.10585 1.50996 -7.13202 -6.74829
lowerback 18.8016 -0.73065 6.13357
upperback 2.03425 0.508403 2.45219
thorax -8.31266 0.0736574 -0.957949
lowerneck -5.06644 1.34827 1.51819
upperneck -8.53176 1.5743 -2.86098
head -1.7729 0.782421 -1.15113
rclavicle -1.6847e-014 -1.96797e-014
rhumerus -23.9839 10.8377 -84.6826
rradius 109.121
rwrist -7.0224
rhand -35.265 32.4311
rfingers 7.12502
rthumb -8.4005 2.61821
lclavicle -1.6847e-014 -1.96797e-014
lhumerus -49.4266 -13.6718 96.7114
lradius 106.678
lwrist 37.5124
lhand -34.983 11.5514
lfingers 7.12502
lthumb -8.12839 41.3751
rfemur -1.87112 8.09201 34.3751
rtibia 39.8824
rfoot -17.1443 -8.08909
rtoes -16.5009
lfemur -38.9755 16.0205 -8.31686
ltibia 113.679
lfoot 7.12005 -8.9417
ltoes -10.0483
52
root 0.195536 17.2962 2.64111 2.22535 -7.29373 -6.97843
lowerback 17.8409 -0.353117 6.80937
upperback 1.84199 1.05098 2.26089
thorax -7.94555 0.315716 -1.6779
lowerneck -5.18343 1.11607 1.41932
upperneck -8.19044 1.30118 -2.37187
head -1.65159 0.64054 -0.974954
rclavicle 2.25869e-014 1.33186e-014
rhumerus -23.9824 10.8133 -84.6934
rradius 110.155
rwrist -7.20284
rhand -34.3631 30.9516
rfingers 7.12502
rthumb -7.53001 1.10562
lclavicle 2.25869e-014 1.33186e-014
lhumerus -50.6032 -13.6335 96.7041
lradius 106.923
lwrist 37.0582
lhand -34.9865 11.5897
lfingers 7.12502
lthumb -8.13178 41.4132
rfemur -0.0349879 8.22799 34.3281
rtibia 38.1674
rfoot -15.2194 -7.00626
rtoes -18.3192
lfemur -41.4903 15.3147 -9.19963
ltibia 111.281
lfoot 6.49297 -9.15789
ltoes -10.0683
53
root 0.20987 17.4108 3.18932 2.75791 -7.41006 -6.98608
lowerback 17.1336 0.026714 7.27174
upperback 1.493 1.57585 2.00933
thorax -7.87534 0.544951 -2.32571
lowerneck -4.66778 0.896823 1.32594
upperneck -8.13073 1.04386 -1.9295
head -1.72643 0.511393 -0.82401
rclavicle 1.42876e-014 2.21645e-014
rhumerus -24.6122 10.9219 -84.8842
rradius 111.273
rwrist -7.39568
rhand -34.3599 30.3369
rfingers 7.12502
rthumb -7.52697 0.490836
lclavicle 1.42876e-014 2.21645e-014
lhumerus -52.21 -13.4427 96.7261
lradius 107.257
lwrist 36.4548
lhand -34.6979 12.8424
lfingers 7.12502
lthumb -7.85316 42.6765
rfemur 2.14094 8.34205 34.0038
rtibia 35.9822
rfoot -12.6447 -5.61801
rtoes -19.3569
lfemur -43.4432 14.3268 -10.2273
ltibia 108.333
lfoot 5.59716 -9.23517
ltoes -12.4653
54
root 0.218742 17.5297 3.73198 3.19828 -7.52139 -6.80202
lowerback 16.6407 0.428409 7.36591
upperback 1.0434 2.08296 1.73298
thorax -8.032 0.766505 -2.78547
lowerneck -3.58433 0.635783 1.51353
upperneck -8.39261 0.70841 -1.81442
head -2.00357 0.342198 -0.828766
rclavicle -9.44227e-016 -3.97569e-015
rhumerus -25.4238 11.2105 -85.1454
rradius 112.124
rwrist -7.82519
rhand -34.6323 30.7469
rfingers 7.12502
rthumb -7.78985 0.910416
lclavicle -9.44227e-016 -3.97569e-015
lhumerus -54.1486 -13.1843 96.7172
lradius 107.736
lwrist 35.9825
lhand -33.8039 12.6979
lfingers 7.12502
lthumb -6.99023 42.5625
rfemur 4.53362 8.52921 33.455
rtibia 33.4584
rfoot -9.71635 -4.08026
rtoes -19.7958
lfemur -45.2202 13.1776 -11.25
ltibia 104.993
lfoot 3.92115 -9.16955
ltoes -16.2488
55
root 0.223321 17.6679 4.27405 3.44696 -7.33991 -6.73299
lowerback 16.3184 0.628977 7.49011
upperback 0.864691 2.33838 1.57083
thorax -8.01002 0.879495 -3.08025
lowerneck -3.51285 0.461857 1.37602
upperneck -8.3149 0.501935 -1.46391
head -1.99415 0.237038 -0.693353
rclavicle -2.37548e-014 -6.85807e-015
rhumerus -25.7851 11.9648 -85.3339
rradius 112.794
rwrist -8.83006
rhand -35.5434 32.1198
rfingers 7.12502
rthumb -8.66915 2.31778
lclavicle -2.37548e-014 -6.85807e-015
lhumerus -55.3757 -12.7165 96.5601
lradius 108.039
lwrist 35.5777
lhand -33.1817 10.4213
lfingers 7.12502
lthumb -6.3896 40.3049
rfemur 7.13694 8.38975 33.0493
rtibia 30.6989
rfoot -6.6403 -2.61015
rtoes -20.2788
lfemur -46.5203 11.7536 -11.8979
ltibia 101.236
lfoot 4.24482 -9.06452
ltoes -13.1877
